<svg viewBox="0 0 28 26" fill="none" xmlns="http://www.w3.org/2000/svg">
  <path
    d="M15.2481 19.9985C15.2481 20.33 15.1164 20.648 14.882 20.8824C14.6475 21.1168 14.3296 21.2485 13.9981 21.2485C13.6666 21.2485 13.3486 21.1168 13.1142 20.8824C12.8798 20.648 12.7481 20.33 12.7481 19.9985C12.7481 19.667 12.8798 19.349 13.1142 19.1146C13.3486 18.8802 13.6666 18.7485 13.9981 18.7485C14.3296 18.7485 14.6475 18.8802 14.882 19.1146C15.1164 19.349 15.2481 19.667 15.2481 19.9985ZM13.9981 6.9985C13.7329 6.9985 13.4785 7.10386 13.291 7.29139C13.1034 7.47893 12.9981 7.73328 12.9981 7.9985V15.9985C12.9981 16.2637 13.1034 16.5181 13.291 16.7056C13.4785 16.8931 13.7329 16.9985 13.9981 16.9985C14.2633 16.9985 14.5176 16.8931 14.7052 16.7056C14.8927 16.5181 14.9981 16.2637 14.9981 15.9985V7.9985C14.9981 7.73328 14.8927 7.47893 14.7052 7.29139C14.5176 7.10386 14.2633 6.9985 13.9981 6.9985ZM10.9341 1.8075C12.2661 -0.6025 15.7301 -0.6025 17.0621 1.8075L27.5551 20.8065C28.8441 23.1385 27.1561 25.9985 24.4921 25.9985H3.50507C0.840074 25.9985 -0.846926 23.1385 0.441074 20.8065L10.9341 1.8075ZM15.3111 2.7745C15.1814 2.53981 14.9913 2.34415 14.7603 2.2079C14.5294 2.07165 14.2662 1.99978 13.9981 1.99978C13.73 1.99978 13.4667 2.07165 13.2358 2.2079C13.0049 2.34415 12.8147 2.53981 12.6851 2.7745L2.19207 21.7735C2.06599 22.0019 2.00164 22.2592 2.00538 22.52C2.00912 22.7808 2.08081 23.0362 2.21339 23.2608C2.34596 23.4855 2.53483 23.6717 2.76135 23.8011C2.98787 23.9304 3.24422 23.9985 3.50507 23.9985H24.4921C24.7529 23.9985 25.0093 23.9304 25.2358 23.8011C25.4623 23.6717 25.6512 23.4855 25.7838 23.2608C25.9163 23.0362 25.988 22.7808 25.9918 22.52C25.9955 22.2592 25.9312 22.0019 25.8051 21.7735L15.3111 2.7745Z"
    fill="currentColor"
  />
</svg>
