<svg viewBox="0 0 16 12" fill="none" xmlns="http://www.w3.org/2000/svg">
  <path
    d="M7.78481 0.00339815C12.5665 -0.140257 15.3813 4.31384 15.8932 5.20164C16.0361 5.44906 16.036 5.75403 15.8932 6.00145C15.2055 7.20095 12.6386 11.0876 8.21645 11.1997H8.01625C3.30615 11.1997 0.610871 6.8731 0.107073 6.00145C-0.0356714 5.75407 -0.0357105 5.449 0.107073 5.20164C0.802796 4.00212 3.36257 0.115354 7.78481 0.00339815ZM7.86391 1.60301C4.66543 1.68321 2.57859 4.3146 1.77895 5.60203C2.48294 6.72987 4.73017 9.68004 8.17641 9.60008C11.3746 9.52003 13.4375 6.88968 14.2614 5.60203C13.5497 4.47448 11.2945 1.51504 7.86391 1.60301ZM8.00063 2.8032C9.54626 2.80338 10.7995 4.05636 10.7995 5.60203C10.7992 7.14751 9.54612 8.40068 8.00063 8.40086C6.45498 8.40086 5.20203 7.14762 5.2018 5.60203C5.2018 4.05625 6.45484 2.8032 8.00063 2.8032ZM8.00063 4.40184C7.33815 4.40184 6.80043 4.93955 6.80043 5.60203C6.80066 6.26432 7.33829 6.80125 8.00063 6.80125C8.66281 6.80107 9.19962 6.26421 9.19985 5.60203C9.19985 4.93966 8.66296 4.40201 8.00063 4.40184Z"
    fill="currentColor"
  />
</svg>
