<svg viewBox="0 0 16 20" fill="none" xmlns="http://www.w3.org/2000/svg">
  <path
    d="M2 0C1.46957 0 0.960859 0.210714 0.585786 0.585786C0.210714 0.960859 0 1.46957 0 2V18C0 18.5304 0.210714 19.0391 0.585786 19.4142C0.960859 19.7893 1.46957 20 2 20H14C14.5304 20 15.0391 19.7893 15.4142 19.4142C15.7893 19.0391 16 18.5304 16 18V7.828C15.9999 7.29761 15.7891 6.78899 15.414 6.414L9.586 0.586C9.21101 0.210901 8.70239 0.000113275 8.172 0H2ZM1.5 2C1.5 1.86739 1.55268 1.74021 1.64645 1.64645C1.74021 1.55268 1.86739 1.5 2 1.5H8V6C8 6.53043 8.21071 7.03914 8.58579 7.41421C8.96086 7.78929 9.46957 8 10 8H14.5V18C14.5 18.1326 14.4473 18.2598 14.3536 18.3536C14.2598 18.4473 14.1326 18.5 14 18.5H2C1.86739 18.5 1.74021 18.4473 1.64645 18.3536C1.55268 18.2598 1.5 18.1326 1.5 18V2ZM13.38 6.5H10C9.86739 6.5 9.74021 6.44732 9.64645 6.35355C9.55268 6.25979 9.5 6.13261 9.5 6V2.62L13.38 6.5Z"
    fill="currentColor"
  />
</svg>
