<svg viewBox="0 0 130 12" fill="none" xmlns="http://www.w3.org/2000/svg">
  <path
    d="M87.4248 0C88.3547 0 89.1673 0.144615 89.8623 0.43457C90.5572 0.71953 91.1348 1.11706 91.5947 1.62695C92.0597 2.13695 92.4077 2.72746 92.6377 3.39746C92.8676 4.06736 92.9824 4.78776 92.9824 5.55762C92.9824 6.62242 92.7697 7.57235 92.3447 8.40723C91.9247 9.24215 91.3071 9.90175 90.4922 10.3867C89.6772 10.8717 88.6772 11.1143 87.4922 11.1143C86.5273 11.1142 85.6922 10.9668 84.9873 10.6719C84.2824 10.3719 83.702 9.96416 83.2471 9.44922C82.7923 8.92932 82.4525 8.33669 82.2275 7.67188C82.0076 7.00698 81.8975 6.30714 81.8975 5.57227C81.8975 4.53227 82.1027 3.59195 82.5127 2.75195C82.9277 1.90708 83.5425 1.23714 84.3574 0.742188C85.1774 0.247209 86.1999 2.15804e-05 87.4248 0ZM4.51465 1.97168C4.73465 2.52668 4.95297 3.07988 5.16797 3.62988L6.44238 6.89941H6.60742L7.84473 3.63672C8.05468 3.08183 8.26281 2.5322 8.46777 1.9873C8.67777 1.4423 8.89793 0.851797 9.12793 0.216797H11.5947C11.6697 0.816748 11.7425 1.40454 11.8125 1.97949C11.8875 2.55447 11.9677 3.17206 12.0527 3.83203L12.5098 7.43262C12.5897 8.08245 12.6654 8.68255 12.7354 9.23242C12.8103 9.78229 12.8822 10.3422 12.9521 10.9121H10.6055C10.5155 10.1621 10.4278 9.44941 10.3428 8.77441C10.2578 8.09948 10.1803 7.4669 10.1104 6.87695L9.79492 4.3418H9.62988L8.7002 7.06445C8.4752 7.73443 8.24757 8.3996 8.01758 9.05957C7.79259 9.71454 7.58269 10.3321 7.3877 10.9121H5.75293C5.61297 10.5372 5.45987 10.1349 5.29492 9.70508C5.13496 9.27518 4.96976 8.83747 4.7998 8.39258C4.62984 7.94266 4.46282 7.50219 4.29785 7.07227L3.2627 4.3418H3.09766L2.79004 6.8623C2.72005 7.45719 2.6426 8.09456 2.55762 8.77441C2.47762 9.4494 2.39273 10.1621 2.30273 10.9121H0C0.0749877 10.3522 0.147784 9.79233 0.217773 9.23242C0.287773 8.67242 0.362383 8.06418 0.442383 7.40918L0.884766 3.82422C0.969721 3.17955 1.04722 2.56985 1.11719 1.99512C1.18719 1.42012 1.25996 0.826797 1.33496 0.216797H3.83203C4.07196 0.826611 4.29971 1.41184 4.51465 1.97168ZM26.2305 1.85254C26.4054 2.38243 26.6005 2.97225 26.8154 3.62207L28.0078 7.29688C28.2028 7.88688 28.4006 8.49512 28.6006 9.12012C28.8055 9.74495 29.0006 10.3423 29.1855 10.9121H26.6357C26.4758 10.3422 26.3106 9.7599 26.1406 9.16504C26.0938 8.99987 26.0466 8.837 26.001 8.67676H22.1475C22.1011 8.83477 22.0556 8.99534 22.0078 9.15723C21.8328 9.76217 21.663 10.3472 21.498 10.9121H19.0234C19.2134 10.3372 19.4103 9.73162 19.6152 9.09668C19.8251 8.46194 20.0231 7.85983 20.208 7.29004L21.415 3.62207C21.63 2.95718 21.826 2.36001 22.001 1.83008C22.176 1.29508 22.3504 0.756797 22.5254 0.216797H25.7051C25.8851 0.776797 26.0605 1.32254 26.2305 1.85254ZM39.6416 0.216797C40.5116 0.216797 41.2467 0.314773 41.8467 0.509766C42.4517 0.699766 42.9097 1.01973 43.2197 1.46973C43.5346 1.9197 43.6914 2.53278 43.6914 3.30762C43.6913 3.92242 43.5692 4.47497 43.3242 4.96484C43.0843 5.45465 42.6969 5.84201 42.1621 6.12695C41.9663 6.23126 41.7478 6.31571 41.5078 6.38184L42.4697 7.7998C42.6946 8.12966 42.9346 8.48445 43.1895 8.86426C43.4444 9.23916 43.6917 9.60689 43.9316 9.9668C44.1766 10.3218 44.3921 10.6371 44.5771 10.9121H41.7793C41.5093 10.4922 41.249 10.09 40.999 9.70508C40.7491 9.32014 40.5064 8.94502 40.2715 8.58008L39.248 6.9668H37.9619V10.9121H35.5391V0.216797H39.6416ZM53.3779 4.38672H53.8428L55.1025 2.7373C55.4025 2.3473 55.7001 1.95922 55.9951 1.57422C56.2901 1.18425 56.6325 0.73173 57.0225 0.216797H59.8652C59.4002 0.781795 58.945 1.33684 58.5 1.88184C58.06 2.42684 57.6179 2.97723 57.1729 3.53223L55.8691 5.14062L57.3154 7.13965C57.6054 7.53961 57.9151 7.96973 58.2451 8.42969C58.5801 8.88969 58.9057 9.33746 59.2207 9.77246C59.5356 10.2073 59.8128 10.5872 60.0527 10.9121H57.0752C56.7452 10.4371 56.4327 9.99212 56.1377 9.57715C55.8478 9.15728 55.5631 8.74473 55.2832 8.33984L53.873 6.32227H53.3779V10.9121H50.918V0.216797H53.3779V4.38672ZM70.6436 0.216797C71.4586 0.216797 72.1843 0.334336 72.8193 0.569336C73.4542 0.804309 73.9889 1.14962 74.4238 1.60449C74.8638 2.05949 75.1987 2.61734 75.4287 3.27734C75.6587 3.93232 75.7744 4.68239 75.7744 5.52734C75.7744 6.28226 75.6718 6.98764 75.4668 7.64258C75.2668 8.29245 74.944 8.86262 74.499 9.35254C74.0591 9.84238 73.4767 10.225 72.752 10.5C72.027 10.775 71.1416 10.9121 70.0967 10.9121H66.3916V0.216797H70.6436ZM101.732 2.28711C101.882 3.00699 102.025 3.6919 102.16 4.3418L102.902 7.97949H103.09L103.855 4.29688C103.945 3.87699 104.038 3.43459 104.133 2.96973C104.233 2.49973 104.333 2.02957 104.433 1.55957C104.533 1.08959 104.628 0.641784 104.718 0.216797H107.351C107.491 0.871797 107.635 1.55465 107.785 2.26465C107.94 2.96965 108.09 3.6525 108.235 4.3125L109.03 7.97949H109.21L109.968 4.29004C110.098 3.66004 110.235 2.98184 110.38 2.25684C110.53 1.53192 110.67 0.851732 110.8 0.216797H113.59C113.415 0.851797 113.233 1.51973 113.043 2.21973C112.858 2.91958 112.685 3.5644 112.525 4.1543L111.61 7.53711C111.465 8.06711 111.312 8.63242 111.152 9.23242C110.992 9.83227 110.84 10.3922 110.695 10.9121H107.695C107.555 10.3121 107.408 9.6843 107.253 9.0293C107.098 8.36948 106.952 7.74231 106.817 7.14746L106.022 3.75684H105.835L105.07 7.14746C104.94 7.73729 104.798 8.36451 104.643 9.0293C104.493 9.6943 104.35 10.3221 104.215 10.9121H101.357C101.217 10.3821 101.067 9.81676 100.907 9.2168C100.747 8.61198 100.598 8.05197 100.458 7.53711L99.5723 4.17676C99.4123 3.582 99.2378 2.9322 99.0479 2.22754C98.8629 1.51754 98.6875 0.846797 98.5225 0.216797H101.306C101.441 0.871774 101.582 1.56214 101.732 2.28711ZM123.531 2.28711C123.976 2.93205 124.421 3.57955 124.866 4.22949L126.605 6.75H126.786V0.216797H129.104V10.9121H126.974C126.564 10.3121 126.134 9.68707 125.684 9.03711C125.234 8.38716 124.741 7.67716 124.206 6.90723L122.443 4.35742H122.271V10.9121H119.961V0.216797H122.113C122.613 0.946797 123.086 1.63711 123.531 2.28711ZM87.4551 2.03223C86.9701 2.03223 86.54 2.1246 86.165 2.30957C85.7951 2.49452 85.4853 2.75215 85.2354 3.08203C84.9854 3.407 84.795 3.78208 84.665 4.20703C84.535 4.63203 84.4697 5.08262 84.4697 5.55762C84.4698 6.03244 84.5323 6.48237 84.6572 6.90723C84.7822 7.32722 84.9679 7.70223 85.2129 8.03223C85.4629 8.3571 85.7727 8.61474 86.1426 8.80469C86.5176 8.98965 86.9551 9.08203 87.4551 9.08203C87.95 9.08202 88.383 8.98967 88.7529 8.80469C89.1228 8.6147 89.4299 8.35431 89.6748 8.02441C89.9198 7.69443 90.1027 7.31939 90.2227 6.89941C90.3476 6.47464 90.4101 6.02735 90.4102 5.55762C90.4102 5.06262 90.342 4.60176 90.207 4.17676C90.077 3.74695 89.8848 3.37164 89.6299 3.05176C89.3799 2.73189 89.0719 2.48171 88.707 2.30176C88.3422 2.12193 87.9248 2.03224 87.4551 2.03223ZM68.8594 8.93945H70.0889C70.8589 8.93945 71.4689 8.78926 71.9189 8.48926C72.3738 8.1893 72.7014 7.77964 72.9014 7.25977C73.1014 6.73977 73.2012 6.15207 73.2012 5.49707C73.2012 5.00222 73.1414 4.55237 73.0215 4.14746C72.9065 3.74246 72.7264 3.39449 72.4814 3.10449C72.2415 2.80954 71.9335 2.58467 71.5586 2.42969C71.1837 2.26981 70.7365 2.18949 70.2168 2.18945H68.8594V8.93945ZM22.6855 6.83203H25.4736L24.1826 2.30957H24.0029L22.6855 6.83203ZM37.9619 5.20508H39.3047C39.7045 5.20504 40.0397 5.15747 40.3096 5.0625C40.5845 4.96249 40.7917 4.79452 40.9316 4.55957C41.0716 4.32457 41.1416 4.0018 41.1416 3.5918C41.1416 3.2871 41.0967 3.04232 41.0068 2.85742C40.9169 2.66761 40.7944 2.52002 40.6396 2.41504C40.4896 2.31004 40.3189 2.24008 40.1289 2.20508C39.944 2.17011 39.7563 2.15234 39.5664 2.15234H37.9619V5.20508Z"
    fill="white"
  />
</svg>
